<?xml version="1.0" ?><svg id="Layer_1" style="enable-background:new 0 0 64 64;" version="1.1" viewBox="0 0 64 64" xml:space="preserve" xmlns="http://www.w3.org/2000/svg" xmlns:xlink="http://www.w3.org/1999/xlink"><style type="text/css">
	.st0{fill:url(#SVGID_1_);}
	.st1{fill:#8FE8F7;}
	.st2{fill:url(#SVGID_2_);}
	.st3{opacity:0.1;fill:#333333;}
	.st4{fill:url(#SVGID_3_);}
	.st5{fill:url(#SVGID_4_);}
	.st6{fill:url(#SVGID_5_);}
	.st7{fill:url(#SVGID_6_);}
	.st8{fill:url(#SVGID_7_);}
	.st9{fill:url(#SVGID_8_);}
	.st10{fill:url(#SVGID_9_);}
	.st11{fill:url(#SVGID_10_);}
	.st12{fill:url(#SVGID_11_);}
	.st13{opacity:0.3;fill:#FFFFFF;}
	.st14{fill:url(#SVGID_12_);}
	.st15{fill:url(#SVGID_13_);}
	.st16{fill:#FFFFFF;}
	.st17{fill:url(#SVGID_14_);}
	.st18{opacity:0.15;fill:#FFFFFF;}
</style><linearGradient gradientUnits="userSpaceOnUse" id="SVGID_1_" x1="31.9982" x2="31.9982" y1="62.25" y2="7.4909"><stop offset="0" style="stop-color:#ED2E3B"/><stop offset="1" style="stop-color:#D5183B"/></linearGradient><path class="st0" d="M42.7,2.9H21.3c-3.8,0-7.3,2-9.2,5.3L1.4,26.7c-1.9,3.3-1.9,7.3,0,10.6l10.7,18.5c1.9,3.3,5.4,5.3,9.2,5.3h21.4  c3.8,0,7.3-2,9.2-5.3l10.7-18.5c1.9-3.3,1.9-7.3,0-10.6L51.9,8.2C50,4.9,46.5,2.9,42.7,2.9z"/><path class="st3" d="M62.6,26.7l-4.6-8C56.6,38.4,40.1,54,20,54c-3.3,0-6.5-0.4-9.6-1.2l1.8,3c1.9,3.3,5.4,5.3,9.2,5.3h21.4  c3.8,0,7.3-2,9.2-5.3l10.7-18.5C64.5,34,64.5,30,62.6,26.7z"/><g><path class="st16" d="M19.3,15.1H17c-2.2,0-4,1.8-4,4v10.5c0,2.2,1.8,4,4,4h2.3c2.2,0,4-1.8,4-4V19.1   C23.3,16.9,21.5,15.1,19.3,15.1z"/><path class="st16" d="M49.7,25.8c-0.6-0.4-0.8-1.2-0.5-1.8c0.1-0.3,0.2-0.7,0.2-1.1c0-1.1-0.6-2-1.5-2.5c-0.6-0.3-1-0.9-1-1.5   l0-0.1c0-1.5-1.2-2.7-2.7-2.7l0,0h-0.1c0,0,0,0,0,0c0,0,0,0,0,0H29.3c0,0-1.7-0.1-3.5,1.5c-0.3,0.3-0.5,0.8-0.5,1.2l0,10.1   c0,1.3,0.4,2.5,1.4,3.4c0.2,0.2,0.3,0.4,0.5,0.6c0.7,1,3.9,7.3,4.7,8.8c0.1,0.2,0.2,0.5,0.2,0.7v4.8c0,0.4,0.2,0.8,0.5,1.1   c0.3,0.3,0.8,0.6,1.4,0.4c1.2-0.3,3.7-1.9,4.1-5.4c0.2-1.9,0.1-3.7-0.1-5.1c-0.1-1,0.7-1.9,1.7-1.9h7.9l0,0c1.6,0,2.8-1.3,2.8-2.8   c0-0.5-0.2-1.1-0.4-1.5c-0.4-0.7-0.3-1.5,0.2-2.1c0.5-0.5,0.8-1.2,0.8-1.9C51,27.2,50.5,26.4,49.7,25.8z"/></g><ellipse class="st13" cx="24.5" cy="8.3" rx="7.5" ry="3.3"/></svg>