<?xml version="1.0" ?><svg id="Layer_1" style="enable-background:new 0 0 64 64;" version="1.1" viewBox="0 0 64 64" xml:space="preserve" xmlns="http://www.w3.org/2000/svg" xmlns:xlink="http://www.w3.org/1999/xlink"><style type="text/css">
	.st0{fill:url(#SVGID_1_);}
	.st1{fill:#8FE8F7;}
	.st2{fill:url(#SVGID_2_);}
	.st3{opacity:0.1;fill:#333333;}
	.st4{fill:url(#SVGID_3_);}
	.st5{fill:url(#SVGID_4_);}
	.st6{fill:url(#SVGID_5_);}
	.st7{fill:url(#SVGID_6_);}
	.st8{fill:url(#SVGID_7_);}
	.st9{fill:url(#SVGID_8_);}
	.st10{fill:url(#SVGID_9_);}
	.st11{fill:url(#SVGID_10_);}
	.st12{fill:url(#SVGID_11_);}
	.st13{opacity:0.3;fill:#FFFFFF;}
	.st14{fill:url(#SVGID_12_);}
	.st15{fill:url(#SVGID_13_);}
	.st16{fill:#FFFFFF;}
	.st17{fill:url(#SVGID_14_);}
	.st18{opacity:0.15;fill:#FFFFFF;}
</style><linearGradient gradientUnits="userSpaceOnUse" id="SVGID_1_" x1="32" x2="32" y1="67.75" y2="-2.3303"><stop offset="0" style="stop-color:#02CF98"/><stop offset="1" style="stop-color:#02A3A9"/></linearGradient><path class="st0" d="M42.7,2.9H21.3c-3.8,0-7.3,2-9.2,5.3L1.4,26.7c-1.9,3.3-1.9,7.3,0,10.6l10.7,18.5c1.9,3.3,5.4,5.3,9.2,5.3h21.4  c3.8,0,7.3-2,9.2-5.3l10.7-18.5c1.9-3.3,1.9-7.3,0-10.6L51.9,8.2C50,4.9,46.5,2.9,42.7,2.9z"/><path class="st3" d="M62.6,26.7l-4.6-8C56.6,38.4,40.1,54,20,54c-3.3,0-6.5-0.4-9.6-1.2l1.8,3c1.9,3.3,5.4,5.3,9.2,5.3h21.4  c3.8,0,7.3-2,9.2-5.3l10.7-18.5C64.5,34,64.5,30,62.6,26.7z"/><g><ellipse cx="19" cy="35.3" rx="5" ry="6.1"/></g><g><ellipse cx="45" cy="35.3" rx="5" ry="6.1"/></g><g><path d="M41,51H23c-1.1,0-2-0.9-2-2s0.9-2,2-2h18c1.1,0,2,0.9,2,2S42.1,51,41,51z"/></g><g><path d="M32,35c-14.6,0-24.9-9.1-25.3-9.5c-0.8-0.7-0.9-2-0.1-2.8c0.7-0.8,2-0.9,2.8-0.2C9.5,22.6,19,31,32,31   c13.1,0,22.6-8.4,22.7-8.5c0.8-0.7,2.1-0.7,2.8,0.1c0.7,0.8,0.7,2.1-0.1,2.8C56.9,25.9,46.6,35,32,35z"/></g><ellipse class="st13" cx="24.5" cy="8.3" rx="7.5" ry="3.3"/></svg>