<?xml version="1.0" ?><svg id="Layer_1" style="enable-background:new 0 0 64 64;" version="1.1" viewBox="0 0 64 64" xml:space="preserve" xmlns="http://www.w3.org/2000/svg" xmlns:xlink="http://www.w3.org/1999/xlink"><style type="text/css">
	.st0{fill:url(#SVGID_1_);}
	.st1{fill:#8FE8F7;}
	.st2{fill:url(#SVGID_2_);}
	.st3{opacity:0.1;fill:#333333;}
	.st4{fill:url(#SVGID_3_);}
	.st5{fill:url(#SVGID_4_);}
	.st6{fill:url(#SVGID_5_);}
	.st7{fill:url(#SVGID_6_);}
	.st8{fill:url(#SVGID_7_);}
	.st9{fill:url(#SVGID_8_);}
	.st10{fill:url(#SVGID_9_);}
	.st11{fill:url(#SVGID_10_);}
	.st12{fill:url(#SVGID_11_);}
	.st13{opacity:0.3;fill:#FFFFFF;}
	.st14{fill:url(#SVGID_12_);}
	.st15{fill:url(#SVGID_13_);}
	.st16{fill:#FFFFFF;}
	.st17{fill:url(#SVGID_14_);}
	.st18{opacity:0.15;fill:#FFFFFF;}
</style><linearGradient gradientUnits="userSpaceOnUse" id="SVGID_1_" x1="32" x2="32" y1="67.75" y2="-2.3303"><stop offset="0" style="stop-color:#02CF98"/><stop offset="1" style="stop-color:#02A3A9"/></linearGradient><path class="st0" d="M42.7,2.9H21.3c-3.8,0-7.3,2-9.2,5.3L1.4,26.7c-1.9,3.3-1.9,7.3,0,10.6l10.7,18.5c1.9,3.3,5.4,5.3,9.2,5.3h21.4  c3.8,0,7.3-2,9.2-5.3l10.7-18.5c1.9-3.3,1.9-7.3,0-10.6L51.9,8.2C50,4.9,46.5,2.9,42.7,2.9z"/><path class="st1" d="M23,25H12c0,0,0.8,8,3,14c2.9,7.7,1.1,14.5-0.8,19.4c1.9,1.7,4.4,2.7,7.1,2.7h2.3C24.7,57.7,26.7,50,26,44  C25,36,21,32,23,25z"/><path class="st1" d="M41.2,25h11c0,0-0.8,8-3,14c-2.9,7.7-1.1,14.5,0.8,19.4c-1.9,1.7-4.4,2.7-7.1,2.7h-2.3  C39.5,57.7,37.4,50,38.2,44C39.2,36,43.2,32,41.2,25z"/><path class="st3" d="M62.6,26.7l-4.6-8C56.6,38.4,40.1,54,20,54c-3.3,0-6.5-0.4-9.6-1.2l1.8,3c1.9,3.3,5.4,5.3,9.2,5.3h21.4  c3.8,0,7.3-2,9.2-5.3l10.7-18.5C64.5,34,64.5,30,62.6,26.7z"/><ellipse class="st13" cx="24.5" cy="8.3" rx="7.5" ry="3.3"/><g><path d="M24,27c-0.4,0-0.8-0.1-1.1-0.3c-0.2-0.1-5-3.2-9.8,0c-0.9,0.6-2.2,0.4-2.8-0.6c-0.6-0.9-0.4-2.2,0.6-2.8   c7-4.7,13.9-0.2,14.2,0c0.9,0.6,1.2,1.9,0.6,2.8C25.3,26.7,24.6,27,24,27z"/></g><g><path d="M52,27c-0.4,0-0.8-0.1-1.1-0.3c-4.8-3.2-9.7,0-9.8,0c-0.9,0.6-2.2,0.4-2.8-0.6c-0.6-0.9-0.4-2.2,0.6-2.8   c0.3-0.2,7.2-4.7,14.2,0c0.9,0.6,1.2,1.9,0.6,2.8C53.3,26.7,52.6,27,52,27z"/></g><ellipse cx="32" cy="41" rx="4" ry="6"/></svg>