<?xml version="1.0" ?><svg id="Layer_1" style="enable-background:new 0 0 64 64;" version="1.1" viewBox="0 0 64 64" xml:space="preserve" xmlns="http://www.w3.org/2000/svg" xmlns:xlink="http://www.w3.org/1999/xlink"><style type="text/css">
	.st0{fill:url(#SVGID_1_);}
	.st1{fill:#8FE8F7;}
	.st2{fill:url(#SVGID_2_);}
	.st3{opacity:0.1;fill:#333333;}
	.st4{fill:url(#SVGID_3_);}
	.st5{fill:url(#SVGID_4_);}
	.st6{fill:url(#SVGID_5_);}
	.st7{fill:url(#SVGID_6_);}
	.st8{fill:url(#SVGID_7_);}
	.st9{fill:url(#SVGID_8_);}
	.st10{fill:url(#SVGID_9_);}
	.st11{fill:url(#SVGID_10_);}
	.st12{fill:url(#SVGID_11_);}
	.st13{opacity:0.3;fill:#FFFFFF;}
	.st14{fill:url(#SVGID_12_);}
	.st15{fill:url(#SVGID_13_);}
	.st16{fill:#FFFFFF;}
	.st17{fill:url(#SVGID_14_);}
	.st18{opacity:0.15;fill:#FFFFFF;}
</style><linearGradient gradientUnits="userSpaceOnUse" id="SVGID_1_" x1="32" x2="32" y1="67.75" y2="-2.3303"><stop offset="0" style="stop-color:#02CF98"/><stop offset="1" style="stop-color:#02A3A9"/></linearGradient><path class="st0" d="M42.7,2.9H21.3c-3.8,0-7.3,2-9.2,5.3L1.4,26.7c-1.9,3.3-1.9,7.3,0,10.6l10.7,18.5c1.9,3.3,5.4,5.3,9.2,5.3h21.4  c3.8,0,7.3-2,9.2-5.3l10.7-18.5c1.9-3.3,1.9-7.3,0-10.6L51.9,8.2C50,4.9,46.5,2.9,42.7,2.9z"/><path class="st3" d="M62.6,26.7l-4.6-8C56.6,38.4,40.1,54,20,54c-3.3,0-6.5-0.4-9.6-1.2l1.8,3c1.9,3.3,5.4,5.3,9.2,5.3h21.4  c3.8,0,7.3-2,9.2-5.3l10.7-18.5C64.5,34,64.5,30,62.6,26.7z"/><ellipse class="st13" cx="24.5" cy="8.3" rx="7.5" ry="3.3"/><linearGradient gradientUnits="userSpaceOnUse" id="SVGID_2_" x1="50.3614" x2="42.8614" y1="7.4908" y2="38.9908"><stop offset="0" style="stop-color:#ED2E3B"/><stop offset="1" style="stop-color:#FF600B"/></linearGradient><path class="st2" d="M58.4,20.9c0-0.1,0-0.2,0-0.2l0,0c0.2-3.4-2.1-6.4-5.4-6.9c-1.8-0.3-3.6,0.3-4.9,1.4c-1-1.4-2.5-2.5-4.3-2.7  c-3.3-0.5-6.4,1.8-7.1,5.2l0,0c0,0.1,0,0.2,0,0.2c0,0.1,0,0.1,0,0.2c-0.1,1,0,1.9,0.2,2.8c1.4,6.5,8.8,12,8.8,12s8.7-3.4,11.8-9.2  c0.5-0.8,0.8-1.7,1-2.6C58.4,21.1,58.4,21,58.4,20.9z"/><linearGradient gradientUnits="userSpaceOnUse" id="SVGID_3_" x1="14.0423" x2="20.0423" y1="4.0919" y2="42.4253"><stop offset="0" style="stop-color:#ED2E3B"/><stop offset="1" style="stop-color:#FF600B"/></linearGradient><path class="st4" d="M29.1,16.8c0-0.1,0-0.2,0-0.3l0,0c-0.9-4-4.6-6.7-8.5-6.1c-2.1,0.3-3.9,1.6-5,3.3c-1.6-1.3-3.7-2-5.8-1.7  c-3.9,0.6-6.6,4.3-6.3,8.4l0,0c0,0.1,0,0.2,0.1,0.3c0,0.1,0,0.2,0,0.2c0.2,1.2,0.6,2.2,1.2,3.2C8.5,31.1,18.8,35,18.8,35  s8.6-6.8,10.2-14.6c0.3-1.1,0.4-2.2,0.2-3.4C29.2,16.9,29.1,16.8,29.1,16.8z"/><g><path d="M32,53c6.1,0,11.2-4.2,12.9-10c0.6-2-0.9-4-2.9-4H22c-2,0-3.5,2-2.9,4C20.8,48.8,25.9,53,32,53z"/></g></svg>