<?xml version="1.0" ?><svg id="Layer_1" style="enable-background:new 0 0 64 64;" version="1.1" viewBox="0 0 64 64" xml:space="preserve" xmlns="http://www.w3.org/2000/svg" xmlns:xlink="http://www.w3.org/1999/xlink"><style type="text/css">
	.st0{fill:url(#SVGID_1_);}
	.st1{fill:#8FE8F7;}
	.st2{fill:url(#SVGID_2_);}
	.st3{opacity:0.1;fill:#333333;}
	.st4{fill:url(#SVGID_3_);}
	.st5{fill:url(#SVGID_4_);}
	.st6{fill:url(#SVGID_5_);}
	.st7{fill:url(#SVGID_6_);}
	.st8{fill:url(#SVGID_7_);}
	.st9{fill:url(#SVGID_8_);}
	.st10{fill:url(#SVGID_9_);}
	.st11{fill:url(#SVGID_10_);}
	.st12{fill:url(#SVGID_11_);}
	.st13{opacity:0.3;fill:#FFFFFF;}
	.st14{fill:url(#SVGID_12_);}
	.st15{fill:url(#SVGID_13_);}
	.st16{fill:#FFFFFF;}
	.st17{fill:url(#SVGID_14_);}
	.st18{opacity:0.15;fill:#FFFFFF;}
</style><linearGradient gradientUnits="userSpaceOnUse" id="SVGID_1_" x1="32" x2="32" y1="67.75" y2="-2.3303"><stop offset="0" style="stop-color:#02CF98"/><stop offset="1" style="stop-color:#02A3A9"/></linearGradient><path class="st0" d="M42.7,2.9H21.3c-3.8,0-7.3,2-9.2,5.3L1.4,26.7c-1.9,3.3-1.9,7.3,0,10.6l10.7,18.5c1.9,3.3,5.4,5.3,9.2,5.3h21.4  c3.8,0,7.3-2,9.2-5.3l10.7-18.5c1.9-3.3,1.9-7.3,0-10.6L51.9,8.2C50,4.9,46.5,2.9,42.7,2.9z"/><path class="st3" d="M62.6,26.7l-4.6-8C56.6,38.4,40.1,54,20,54c-3.3,0-6.5-0.4-9.6-1.2l1.8,3c1.9,3.3,5.4,5.3,9.2,5.3h21.4  c3.8,0,7.3-2,9.2-5.3l10.7-18.5C64.5,34,64.5,30,62.6,26.7z"/><g><path d="M54,23c-1.1,0-2-0.9-2-2c0-2.8-2.2-5-5-5s-5,2.2-5,5c0,1.1-0.9,2-2,2s-2-0.9-2-2c0-5,4-9,9-9s9,4,9,9   C56,22.1,55.1,23,54,23z"/></g><g><path d="M24,23c-1.1,0-2-0.9-2-2c0-2.8-2.2-5-5-5s-5,2.2-5,5c0,1.1-0.9,2-2,2s-2-0.9-2-2c0-5,4-9,9-9s9,4,9,9   C26,22.1,25.1,23,24,23z"/></g><g><path d="M32,38.5c-12.2,0-16-8.3-16.1-8.7c-0.4-1,0-2.2,1-2.6c1-0.4,2.2,0,2.6,1c0.1,0.2,3,6.3,12.5,6.3s12.3-6.1,12.5-6.3   c0.5-1,1.6-1.5,2.6-1c1,0.4,1.5,1.6,1,2.6C48,30.2,44.2,38.5,32,38.5z"/></g></svg>